<mxfile host="www.draw.io" modified="2019-12-04T08:49:04.610Z" agent="Mozilla/5.0 (Windows NT 10.0; Win64; x64) AppleWebKit/537.36 (KHTML, like Gecko) Chrome/78.0.3904.108 Safari/537.36" etag="IEPYsvQBKl-8KFJMBTtx" version="12.3.6" type="github" pages="1">
  <diagram id="o1K-JnxiX_i7yvccke98" name="第 1 页">
    <mxGraphModel dx="1695" dy="449" grid="1" gridSize="10" guides="1" tooltips="1" connect="1" arrows="1" fold="1" page="1" pageScale="1" pageWidth="827" pageHeight="1169" math="0" shadow="0">
      <root>
        <mxCell id="0"/>
        <mxCell id="1" parent="0"/>
        <mxCell id="Yor80Zz1ylZ34Q17yJMb-24" style="edgeStyle=orthogonalEdgeStyle;rounded=0;orthogonalLoop=1;jettySize=auto;html=1;exitX=0.5;exitY=1;exitDx=0;exitDy=0;exitPerimeter=0;entryX=0.5;entryY=0;entryDx=0;entryDy=0;" edge="1" parent="1" source="Yor80Zz1ylZ34Q17yJMb-1" target="Yor80Zz1ylZ34Q17yJMb-3">
          <mxGeometry relative="1" as="geometry"/>
        </mxCell>
        <mxCell id="Yor80Zz1ylZ34Q17yJMb-1" value="new Glucose (bytes)" style="strokeWidth=2;html=1;shape=mxgraph.flowchart.sequential_data;whiteSpace=wrap;" vertex="1" parent="1">
          <mxGeometry x="220" y="20" width="100" height="100" as="geometry"/>
        </mxCell>
        <mxCell id="Yor80Zz1ylZ34Q17yJMb-3" value="analysis via SDK&lt;br&gt;newGlucose =&amp;nbsp; ProtocalToos.getGlucose(bytes)" style="rounded=1;whiteSpace=wrap;html=1;absoluteArcSize=1;arcSize=14;strokeWidth=2;" vertex="1" parent="1">
          <mxGeometry x="220" y="160" width="100" height="100" as="geometry"/>
        </mxCell>
        <mxCell id="Yor80Zz1ylZ34Q17yJMb-16" value="" style="edgeStyle=orthogonalEdgeStyle;rounded=0;orthogonalLoop=1;jettySize=auto;html=1;" edge="1" parent="1">
          <mxGeometry relative="1" as="geometry">
            <mxPoint x="270" y="410" as="sourcePoint"/>
            <mxPoint x="270" y="500" as="targetPoint"/>
          </mxGeometry>
        </mxCell>
        <mxCell id="Yor80Zz1ylZ34Q17yJMb-28" value="NO" style="edgeStyle=orthogonalEdgeStyle;rounded=0;orthogonalLoop=1;jettySize=auto;html=1;exitX=0.5;exitY=1;exitDx=0;exitDy=0;exitPerimeter=0;" edge="1" parent="1" source="Yor80Zz1ylZ34Q17yJMb-20" target="Yor80Zz1ylZ34Q17yJMb-23">
          <mxGeometry relative="1" as="geometry"/>
        </mxCell>
        <mxCell id="Yor80Zz1ylZ34Q17yJMb-33" style="edgeStyle=orthogonalEdgeStyle;rounded=0;orthogonalLoop=1;jettySize=auto;html=1;exitX=1;exitY=0.5;exitDx=0;exitDy=0;exitPerimeter=0;entryX=1;entryY=0.5;entryDx=0;entryDy=0;entryPerimeter=0;" edge="1" parent="1" source="Yor80Zz1ylZ34Q17yJMb-20" target="Yor80Zz1ylZ34Q17yJMb-1">
          <mxGeometry relative="1" as="geometry">
            <Array as="points">
              <mxPoint x="390" y="490"/>
              <mxPoint x="390" y="70"/>
            </Array>
          </mxGeometry>
        </mxCell>
        <mxCell id="Yor80Zz1ylZ34Q17yJMb-20" value="exist?" style="strokeWidth=2;html=1;shape=mxgraph.flowchart.decision;whiteSpace=wrap;" vertex="1" parent="1">
          <mxGeometry x="220" y="440" width="100" height="100" as="geometry"/>
        </mxCell>
        <mxCell id="Yor80Zz1ylZ34Q17yJMb-30" style="edgeStyle=orthogonalEdgeStyle;rounded=0;orthogonalLoop=1;jettySize=auto;html=1;exitX=0.5;exitY=1;exitDx=0;exitDy=0;entryX=0.5;entryY=0;entryDx=0;entryDy=0;entryPerimeter=0;" edge="1" parent="1" source="Yor80Zz1ylZ34Q17yJMb-23" target="Yor80Zz1ylZ34Q17yJMb-29">
          <mxGeometry relative="1" as="geometry"/>
        </mxCell>
        <mxCell id="Yor80Zz1ylZ34Q17yJMb-23" value="get lastGlucose in database" style="rounded=1;whiteSpace=wrap;html=1;absoluteArcSize=1;arcSize=14;strokeWidth=2;" vertex="1" parent="1">
          <mxGeometry x="220" y="590" width="100" height="100" as="geometry"/>
        </mxCell>
        <mxCell id="Yor80Zz1ylZ34Q17yJMb-25" value="" style="edgeStyle=orthogonalEdgeStyle;rounded=0;orthogonalLoop=1;jettySize=auto;html=1;" edge="1" parent="1" source="Yor80Zz1ylZ34Q17yJMb-3">
          <mxGeometry relative="1" as="geometry">
            <mxPoint x="270" y="260" as="sourcePoint"/>
            <mxPoint x="270" y="310" as="targetPoint"/>
          </mxGeometry>
        </mxCell>
        <mxCell id="Yor80Zz1ylZ34Q17yJMb-26" value="check that&amp;nbsp; if new glucose is in database" style="rounded=1;whiteSpace=wrap;html=1;absoluteArcSize=1;arcSize=14;strokeWidth=2;" vertex="1" parent="1">
          <mxGeometry x="220" y="310" width="100" height="100" as="geometry"/>
        </mxCell>
        <mxCell id="Yor80Zz1ylZ34Q17yJMb-32" value="Yes" style="edgeStyle=orthogonalEdgeStyle;rounded=0;orthogonalLoop=1;jettySize=auto;html=1;exitX=0.5;exitY=1;exitDx=0;exitDy=0;exitPerimeter=0;entryX=0.5;entryY=0;entryDx=0;entryDy=0;" edge="1" parent="1" source="Yor80Zz1ylZ34Q17yJMb-29" target="Yor80Zz1ylZ34Q17yJMb-31">
          <mxGeometry relative="1" as="geometry"/>
        </mxCell>
        <mxCell id="Yor80Zz1ylZ34Q17yJMb-62" style="edgeStyle=orthogonalEdgeStyle;rounded=0;orthogonalLoop=1;jettySize=auto;html=1;exitX=1;exitY=0.5;exitDx=0;exitDy=0;exitPerimeter=0;entryX=1;entryY=0.5;entryDx=0;entryDy=0;" edge="1" parent="1" source="Yor80Zz1ylZ34Q17yJMb-29" target="Yor80Zz1ylZ34Q17yJMb-34">
          <mxGeometry relative="1" as="geometry">
            <mxPoint x="420" y="1010" as="targetPoint"/>
            <Array as="points">
              <mxPoint x="440" y="790"/>
              <mxPoint x="440" y="1110"/>
            </Array>
          </mxGeometry>
        </mxCell>
        <mxCell id="Yor80Zz1ylZ34Q17yJMb-63" value="No" style="text;html=1;align=center;verticalAlign=middle;resizable=0;points=[];;labelBackgroundColor=#ffffff;" vertex="1" connectable="0" parent="Yor80Zz1ylZ34Q17yJMb-62">
          <mxGeometry x="-0.1571" y="3" relative="1" as="geometry">
            <mxPoint as="offset"/>
          </mxGeometry>
        </mxCell>
        <mxCell id="Yor80Zz1ylZ34Q17yJMb-29" value="lastGlucose is abnormal?" style="strokeWidth=2;html=1;shape=mxgraph.flowchart.decision;whiteSpace=wrap;" vertex="1" parent="1">
          <mxGeometry x="220" y="740" width="100" height="100" as="geometry"/>
        </mxCell>
        <mxCell id="Yor80Zz1ylZ34Q17yJMb-60" style="edgeStyle=orthogonalEdgeStyle;rounded=0;orthogonalLoop=1;jettySize=auto;html=1;exitX=0.5;exitY=1;exitDx=0;exitDy=0;entryX=0.5;entryY=0;entryDx=0;entryDy=0;" edge="1" parent="1" source="Yor80Zz1ylZ34Q17yJMb-31" target="Yor80Zz1ylZ34Q17yJMb-34">
          <mxGeometry relative="1" as="geometry"/>
        </mxCell>
        <mxCell id="Yor80Zz1ylZ34Q17yJMb-31" value="get LatestNormalGlucose in database" style="rounded=1;whiteSpace=wrap;html=1;absoluteArcSize=1;arcSize=14;strokeWidth=2;" vertex="1" parent="1">
          <mxGeometry x="220" y="890" width="100" height="100" as="geometry"/>
        </mxCell>
        <mxCell id="Yor80Zz1ylZ34Q17yJMb-56" style="edgeStyle=orthogonalEdgeStyle;rounded=0;orthogonalLoop=1;jettySize=auto;html=1;exitX=1;exitY=0.5;exitDx=0;exitDy=0;exitPerimeter=0;entryX=0.5;entryY=0;entryDx=0;entryDy=0;entryPerimeter=0;" edge="1" parent="1" source="Yor80Zz1ylZ34Q17yJMb-39">
          <mxGeometry relative="1" as="geometry">
            <mxPoint x="877" y="1330.1666666666667" as="targetPoint"/>
          </mxGeometry>
        </mxCell>
        <mxCell id="Yor80Zz1ylZ34Q17yJMb-65" style="edgeStyle=orthogonalEdgeStyle;rounded=0;orthogonalLoop=1;jettySize=auto;html=1;exitX=0.5;exitY=1;exitDx=0;exitDy=0;entryX=0.5;entryY=0;entryDx=0;entryDy=0;entryPerimeter=0;" edge="1" parent="1" source="Yor80Zz1ylZ34Q17yJMb-34" target="Yor80Zz1ylZ34Q17yJMb-39">
          <mxGeometry relative="1" as="geometry"/>
        </mxCell>
        <mxCell id="Yor80Zz1ylZ34Q17yJMb-34" value="Calculation&lt;br&gt;AlgorithmTools.algorithmGlucose()" style="rounded=1;whiteSpace=wrap;html=1;absoluteArcSize=1;arcSize=14;strokeWidth=2;" vertex="1" parent="1">
          <mxGeometry x="220" y="1060" width="100" height="100" as="geometry"/>
        </mxCell>
        <mxCell id="Yor80Zz1ylZ34Q17yJMb-55" value="" style="edgeStyle=orthogonalEdgeStyle;rounded=0;orthogonalLoop=1;jettySize=auto;html=1;entryX=0.5;entryY=0;entryDx=0;entryDy=0;entryPerimeter=0;" edge="1" parent="1" source="Yor80Zz1ylZ34Q17yJMb-39">
          <mxGeometry relative="1" as="geometry">
            <mxPoint x="690.3333333333335" y="1330.1666666666667" as="targetPoint"/>
          </mxGeometry>
        </mxCell>
        <mxCell id="Yor80Zz1ylZ34Q17yJMb-57" value="No" style="text;html=1;align=center;verticalAlign=middle;resizable=0;points=[];;labelBackgroundColor=#ffffff;" vertex="1" connectable="0" parent="Yor80Zz1ylZ34Q17yJMb-55">
          <mxGeometry x="-0.4217" y="2" relative="1" as="geometry">
            <mxPoint as="offset"/>
          </mxGeometry>
        </mxCell>
        <mxCell id="Yor80Zz1ylZ34Q17yJMb-66" value="Yes" style="edgeStyle=orthogonalEdgeStyle;rounded=0;orthogonalLoop=1;jettySize=auto;html=1;exitX=0.5;exitY=1;exitDx=0;exitDy=0;exitPerimeter=0;entryX=0.5;entryY=0;entryDx=0;entryDy=0;entryPerimeter=0;" edge="1" parent="1" source="Yor80Zz1ylZ34Q17yJMb-39">
          <mxGeometry relative="1" as="geometry">
            <mxPoint x="270.33333333333337" y="1330.1666666666667" as="targetPoint"/>
          </mxGeometry>
        </mxCell>
        <mxCell id="Yor80Zz1ylZ34Q17yJMb-67" style="edgeStyle=orthogonalEdgeStyle;rounded=0;orthogonalLoop=1;jettySize=auto;html=1;exitX=0.5;exitY=1;exitDx=0;exitDy=0;exitPerimeter=0;entryX=0.5;entryY=0;entryDx=0;entryDy=0;entryPerimeter=0;" edge="1" parent="1" source="Yor80Zz1ylZ34Q17yJMb-39">
          <mxGeometry relative="1" as="geometry">
            <mxPoint x="130.33333333333337" y="1330.1666666666667" as="targetPoint"/>
          </mxGeometry>
        </mxCell>
        <mxCell id="Yor80Zz1ylZ34Q17yJMb-39" value="AlgorithmTools,isAbnormalCurrent?" style="strokeWidth=2;html=1;shape=mxgraph.flowchart.decision;whiteSpace=wrap;" vertex="1" parent="1">
          <mxGeometry x="220" y="1190" width="100" height="100" as="geometry"/>
        </mxCell>
        <mxCell id="Yor80Zz1ylZ34Q17yJMb-70" style="edgeStyle=orthogonalEdgeStyle;rounded=0;orthogonalLoop=1;jettySize=auto;html=1;exitX=0.5;exitY=1;exitDx=0;exitDy=0;exitPerimeter=0;entryX=0.5;entryY=0;entryDx=0;entryDy=0;" edge="1" parent="1" target="Yor80Zz1ylZ34Q17yJMb-48">
          <mxGeometry relative="1" as="geometry">
            <mxPoint x="130.33333333333337" y="1430.1666666666667" as="sourcePoint"/>
          </mxGeometry>
        </mxCell>
        <mxCell id="Yor80Zz1ylZ34Q17yJMb-68" style="edgeStyle=orthogonalEdgeStyle;rounded=0;orthogonalLoop=1;jettySize=auto;html=1;entryX=0.5;entryY=0;entryDx=0;entryDy=0;entryPerimeter=0;" edge="1" parent="1">
          <mxGeometry relative="1" as="geometry">
            <mxPoint x="270" y="1290" as="sourcePoint"/>
            <mxPoint x="410.3333333333335" y="1330.1666666666667" as="targetPoint"/>
            <Array as="points">
              <mxPoint x="270" y="1310"/>
              <mxPoint x="410" y="1310"/>
            </Array>
          </mxGeometry>
        </mxCell>
        <mxCell id="Yor80Zz1ylZ34Q17yJMb-71" style="edgeStyle=orthogonalEdgeStyle;rounded=0;orthogonalLoop=1;jettySize=auto;html=1;exitX=0.5;exitY=1;exitDx=0;exitDy=0;exitPerimeter=0;" edge="1" parent="1" target="Yor80Zz1ylZ34Q17yJMb-49">
          <mxGeometry relative="1" as="geometry">
            <mxPoint x="270.33333333333337" y="1430.1666666666667" as="sourcePoint"/>
          </mxGeometry>
        </mxCell>
        <mxCell id="Yor80Zz1ylZ34Q17yJMb-72" style="edgeStyle=orthogonalEdgeStyle;rounded=0;orthogonalLoop=1;jettySize=auto;html=1;exitX=0.5;exitY=1;exitDx=0;exitDy=0;exitPerimeter=0;" edge="1" parent="1" target="Yor80Zz1ylZ34Q17yJMb-50">
          <mxGeometry relative="1" as="geometry">
            <mxPoint x="410.3333333333335" y="1430.1666666666667" as="sourcePoint"/>
          </mxGeometry>
        </mxCell>
        <mxCell id="Yor80Zz1ylZ34Q17yJMb-82" style="edgeStyle=orthogonalEdgeStyle;rounded=0;orthogonalLoop=1;jettySize=auto;html=1;exitX=0.5;exitY=1;exitDx=0;exitDy=0;entryX=0.5;entryY=0;entryDx=0;entryDy=0;entryPerimeter=0;" edge="1" parent="1" source="Yor80Zz1ylZ34Q17yJMb-48" target="Yor80Zz1ylZ34Q17yJMb-81">
          <mxGeometry relative="1" as="geometry"/>
        </mxCell>
        <mxCell id="Yor80Zz1ylZ34Q17yJMb-48" value="Uncollected&lt;br&gt;(abnormal)" style="rounded=1;whiteSpace=wrap;html=1;absoluteArcSize=1;arcSize=14;strokeWidth=2;" vertex="1" parent="1">
          <mxGeometry x="80" y="1480" width="100" height="100" as="geometry"/>
        </mxCell>
        <mxCell id="Yor80Zz1ylZ34Q17yJMb-83" style="edgeStyle=orthogonalEdgeStyle;rounded=0;orthogonalLoop=1;jettySize=auto;html=1;exitX=0.5;exitY=1;exitDx=0;exitDy=0;" edge="1" parent="1" source="Yor80Zz1ylZ34Q17yJMb-49">
          <mxGeometry relative="1" as="geometry">
            <mxPoint x="270.33333333333337" y="1669.9999999999998" as="targetPoint"/>
          </mxGeometry>
        </mxCell>
        <mxCell id="Yor80Zz1ylZ34Q17yJMb-49" value="Large current&lt;br&gt;(abnormal)" style="rounded=1;whiteSpace=wrap;html=1;absoluteArcSize=1;arcSize=14;strokeWidth=2;" vertex="1" parent="1">
          <mxGeometry x="220" y="1480" width="100" height="100" as="geometry"/>
        </mxCell>
        <mxCell id="Yor80Zz1ylZ34Q17yJMb-84" style="edgeStyle=orthogonalEdgeStyle;rounded=0;orthogonalLoop=1;jettySize=auto;html=1;exitX=0.5;exitY=1;exitDx=0;exitDy=0;" edge="1" parent="1" source="Yor80Zz1ylZ34Q17yJMb-50">
          <mxGeometry relative="1" as="geometry">
            <mxPoint x="270" y="1669.9999999999998" as="targetPoint"/>
          </mxGeometry>
        </mxCell>
        <mxCell id="Yor80Zz1ylZ34Q17yJMb-50" value="Small current&lt;br&gt;(abnormal)" style="rounded=1;whiteSpace=wrap;html=1;absoluteArcSize=1;arcSize=14;strokeWidth=2;" vertex="1" parent="1">
          <mxGeometry x="360" y="1480" width="100" height="100" as="geometry"/>
        </mxCell>
        <mxCell id="Yor80Zz1ylZ34Q17yJMb-99" style="edgeStyle=orthogonalEdgeStyle;rounded=0;orthogonalLoop=1;jettySize=auto;html=1;exitX=0.5;exitY=1;exitDx=0;exitDy=0;entryX=0.5;entryY=0;entryDx=0;entryDy=0;entryPerimeter=0;" edge="1" parent="1" source="Yor80Zz1ylZ34Q17yJMb-58" target="Yor80Zz1ylZ34Q17yJMb-89">
          <mxGeometry relative="1" as="geometry"/>
        </mxCell>
        <mxCell id="Yor80Zz1ylZ34Q17yJMb-58" value="Normal Data" style="rounded=1;whiteSpace=wrap;html=1;absoluteArcSize=1;arcSize=14;strokeWidth=2;" vertex="1" parent="1">
          <mxGeometry x="640" y="1480" width="100" height="100" as="geometry"/>
        </mxCell>
        <mxCell id="Yor80Zz1ylZ34Q17yJMb-98" style="edgeStyle=orthogonalEdgeStyle;rounded=0;orthogonalLoop=1;jettySize=auto;html=1;exitX=0.5;exitY=1;exitDx=0;exitDy=0;entryX=0.5;entryY=0;entryDx=0;entryDy=0;entryPerimeter=0;" edge="1" parent="1" source="Yor80Zz1ylZ34Q17yJMb-59" target="Yor80Zz1ylZ34Q17yJMb-89">
          <mxGeometry relative="1" as="geometry"/>
        </mxCell>
        <mxCell id="Yor80Zz1ylZ34Q17yJMb-59" value="Normal Data&lt;br&gt;TBD error" style="rounded=1;whiteSpace=wrap;html=1;absoluteArcSize=1;arcSize=14;strokeWidth=2;" vertex="1" parent="1">
          <mxGeometry x="830" y="1480" width="100" height="100" as="geometry"/>
        </mxCell>
        <mxCell id="Yor80Zz1ylZ34Q17yJMb-73" value="&lt;span style=&quot;white-space: normal&quot;&gt;AlgorithmTools.warnCode = 101&lt;/span&gt;" style="rounded=1;whiteSpace=wrap;html=1;absoluteArcSize=1;arcSize=14;strokeWidth=2;" vertex="1" parent="1">
          <mxGeometry x="80" y="1330" width="100" height="100" as="geometry"/>
        </mxCell>
        <mxCell id="Yor80Zz1ylZ34Q17yJMb-75" value="&lt;span style=&quot;white-space: normal&quot;&gt;AlgorithmTools.warnCode = 102&lt;/span&gt;" style="rounded=1;whiteSpace=wrap;html=1;absoluteArcSize=1;arcSize=14;strokeWidth=2;" vertex="1" parent="1">
          <mxGeometry x="220" y="1330" width="100" height="100" as="geometry"/>
        </mxCell>
        <mxCell id="Yor80Zz1ylZ34Q17yJMb-76" value="&lt;span style=&quot;white-space: normal&quot;&gt;AlgorithmTools.warnCode = 103&lt;/span&gt;" style="rounded=1;whiteSpace=wrap;html=1;absoluteArcSize=1;arcSize=14;strokeWidth=2;" vertex="1" parent="1">
          <mxGeometry x="360" y="1330" width="100" height="100" as="geometry"/>
        </mxCell>
        <mxCell id="Yor80Zz1ylZ34Q17yJMb-79" style="edgeStyle=orthogonalEdgeStyle;rounded=0;orthogonalLoop=1;jettySize=auto;html=1;exitX=0.5;exitY=1;exitDx=0;exitDy=0;entryX=0.5;entryY=0;entryDx=0;entryDy=0;" edge="1" parent="1" source="Yor80Zz1ylZ34Q17yJMb-77" target="Yor80Zz1ylZ34Q17yJMb-58">
          <mxGeometry relative="1" as="geometry"/>
        </mxCell>
        <mxCell id="Yor80Zz1ylZ34Q17yJMb-77" value="&lt;span style=&quot;white-space: normal&quot;&gt;AlgorithmTools.warnCode = 0&lt;/span&gt;" style="rounded=1;whiteSpace=wrap;html=1;absoluteArcSize=1;arcSize=14;strokeWidth=2;" vertex="1" parent="1">
          <mxGeometry x="640" y="1330" width="100" height="100" as="geometry"/>
        </mxCell>
        <mxCell id="Yor80Zz1ylZ34Q17yJMb-80" style="edgeStyle=orthogonalEdgeStyle;rounded=0;orthogonalLoop=1;jettySize=auto;html=1;exitX=0.5;exitY=1;exitDx=0;exitDy=0;entryX=0.5;entryY=0;entryDx=0;entryDy=0;" edge="1" parent="1" source="Yor80Zz1ylZ34Q17yJMb-78" target="Yor80Zz1ylZ34Q17yJMb-59">
          <mxGeometry relative="1" as="geometry"/>
        </mxCell>
        <mxCell id="Yor80Zz1ylZ34Q17yJMb-78" value="&lt;span style=&quot;white-space: normal&quot;&gt;AlgorithmTools.warnCode = 104&lt;/span&gt;" style="rounded=1;whiteSpace=wrap;html=1;absoluteArcSize=1;arcSize=14;strokeWidth=2;" vertex="1" parent="1">
          <mxGeometry x="830" y="1330" width="100" height="100" as="geometry"/>
        </mxCell>
        <mxCell id="Yor80Zz1ylZ34Q17yJMb-86" style="edgeStyle=orthogonalEdgeStyle;rounded=0;orthogonalLoop=1;jettySize=auto;html=1;exitX=0.5;exitY=1;exitDx=0;exitDy=0;exitPerimeter=0;entryX=0.5;entryY=0;entryDx=0;entryDy=0;" edge="1" parent="1" source="Yor80Zz1ylZ34Q17yJMb-81" target="Yor80Zz1ylZ34Q17yJMb-85">
          <mxGeometry relative="1" as="geometry"/>
        </mxCell>
        <mxCell id="Yor80Zz1ylZ34Q17yJMb-81" value="More than 5 in a row&amp;nbsp;" style="strokeWidth=2;html=1;shape=mxgraph.flowchart.decision;whiteSpace=wrap;" vertex="1" parent="1">
          <mxGeometry x="220" y="1670" width="100" height="100" as="geometry"/>
        </mxCell>
        <mxCell id="Yor80Zz1ylZ34Q17yJMb-153" style="edgeStyle=orthogonalEdgeStyle;rounded=0;orthogonalLoop=1;jettySize=auto;html=1;exitX=0.5;exitY=1;exitDx=0;exitDy=0;entryX=0.5;entryY=0;entryDx=0;entryDy=0;" edge="1" parent="1" source="Yor80Zz1ylZ34Q17yJMb-85" target="Yor80Zz1ylZ34Q17yJMb-152">
          <mxGeometry relative="1" as="geometry"/>
        </mxCell>
        <mxCell id="Yor80Zz1ylZ34Q17yJMb-85" value="Abnormal current&lt;br&gt;301" style="rounded=1;whiteSpace=wrap;html=1;absoluteArcSize=1;arcSize=14;strokeWidth=2;" vertex="1" parent="1">
          <mxGeometry x="220" y="1820" width="100" height="100" as="geometry"/>
        </mxCell>
        <mxCell id="Yor80Zz1ylZ34Q17yJMb-95" value="No" style="edgeStyle=orthogonalEdgeStyle;rounded=0;orthogonalLoop=1;jettySize=auto;html=1;exitX=0.5;exitY=1;exitDx=0;exitDy=0;exitPerimeter=0;entryX=0.5;entryY=0;entryDx=0;entryDy=0;entryPerimeter=0;" edge="1" parent="1" source="Yor80Zz1ylZ34Q17yJMb-89" target="Yor80Zz1ylZ34Q17yJMb-90">
          <mxGeometry relative="1" as="geometry"/>
        </mxCell>
        <mxCell id="Yor80Zz1ylZ34Q17yJMb-103" value="yes" style="edgeStyle=orthogonalEdgeStyle;rounded=0;orthogonalLoop=1;jettySize=auto;html=1;exitX=1;exitY=0.5;exitDx=0;exitDy=0;exitPerimeter=0;" edge="1" parent="1" source="Yor80Zz1ylZ34Q17yJMb-89" target="Yor80Zz1ylZ34Q17yJMb-100">
          <mxGeometry relative="1" as="geometry"/>
        </mxCell>
        <mxCell id="Yor80Zz1ylZ34Q17yJMb-89" value="more than hyperglycemia limit" style="strokeWidth=2;html=1;shape=mxgraph.flowchart.decision;whiteSpace=wrap;" vertex="1" parent="1">
          <mxGeometry x="740" y="1670" width="100" height="100" as="geometry"/>
        </mxCell>
        <mxCell id="Yor80Zz1ylZ34Q17yJMb-105" value="Yes" style="edgeStyle=orthogonalEdgeStyle;rounded=0;orthogonalLoop=1;jettySize=auto;html=1;exitX=1;exitY=0.5;exitDx=0;exitDy=0;exitPerimeter=0;" edge="1" parent="1" source="Yor80Zz1ylZ34Q17yJMb-90" target="Yor80Zz1ylZ34Q17yJMb-101">
          <mxGeometry relative="1" as="geometry"/>
        </mxCell>
        <mxCell id="Yor80Zz1ylZ34Q17yJMb-106" value="No" style="edgeStyle=orthogonalEdgeStyle;rounded=0;orthogonalLoop=1;jettySize=auto;html=1;exitX=0.5;exitY=1;exitDx=0;exitDy=0;exitPerimeter=0;entryX=0.5;entryY=0;entryDx=0;entryDy=0;" edge="1" parent="1" source="Yor80Zz1ylZ34Q17yJMb-90" target="Yor80Zz1ylZ34Q17yJMb-102">
          <mxGeometry relative="1" as="geometry"/>
        </mxCell>
        <mxCell id="Yor80Zz1ylZ34Q17yJMb-90" value="less than&lt;br&gt;hypoglycemia limit" style="strokeWidth=2;html=1;shape=mxgraph.flowchart.decision;whiteSpace=wrap;" vertex="1" parent="1">
          <mxGeometry x="740" y="1820" width="100" height="100" as="geometry"/>
        </mxCell>
        <mxCell id="Yor80Zz1ylZ34Q17yJMb-111" style="edgeStyle=orthogonalEdgeStyle;rounded=0;orthogonalLoop=1;jettySize=auto;html=1;exitX=0.5;exitY=1;exitDx=0;exitDy=0;exitPerimeter=0;entryX=0.5;entryY=0;entryDx=0;entryDy=0;" edge="1" parent="1" source="Yor80Zz1ylZ34Q17yJMb-92" target="Yor80Zz1ylZ34Q17yJMb-108">
          <mxGeometry relative="1" as="geometry"/>
        </mxCell>
        <mxCell id="Yor80Zz1ylZ34Q17yJMb-92" value="&lt;span style=&quot;white-space: normal&quot;&gt;More than 5 in a row&amp;nbsp;&lt;/span&gt;" style="strokeWidth=2;html=1;shape=mxgraph.flowchart.decision;whiteSpace=wrap;" vertex="1" parent="1">
          <mxGeometry x="740" y="2140" width="100" height="100" as="geometry"/>
        </mxCell>
        <mxCell id="Yor80Zz1ylZ34Q17yJMb-109" style="edgeStyle=orthogonalEdgeStyle;rounded=0;orthogonalLoop=1;jettySize=auto;html=1;exitX=1;exitY=0.5;exitDx=0;exitDy=0;entryX=1;entryY=0.5;entryDx=0;entryDy=0;entryPerimeter=0;" edge="1" parent="1" source="Yor80Zz1ylZ34Q17yJMb-100" target="Yor80Zz1ylZ34Q17yJMb-92">
          <mxGeometry relative="1" as="geometry">
            <mxPoint x="1160" y="2356.6666666666665" as="targetPoint"/>
          </mxGeometry>
        </mxCell>
        <mxCell id="Yor80Zz1ylZ34Q17yJMb-100" value="Hyperglycemia&lt;br&gt;201" style="rounded=1;whiteSpace=wrap;html=1;absoluteArcSize=1;arcSize=14;strokeWidth=2;" vertex="1" parent="1">
          <mxGeometry x="940" y="1670" width="100" height="100" as="geometry"/>
        </mxCell>
        <mxCell id="Yor80Zz1ylZ34Q17yJMb-110" style="edgeStyle=orthogonalEdgeStyle;rounded=0;orthogonalLoop=1;jettySize=auto;html=1;exitX=1;exitY=0.5;exitDx=0;exitDy=0;" edge="1" parent="1" source="Yor80Zz1ylZ34Q17yJMb-101">
          <mxGeometry relative="1" as="geometry">
            <mxPoint x="840" y="2191.6666666666665" as="targetPoint"/>
            <Array as="points">
              <mxPoint x="1060" y="1870"/>
              <mxPoint x="1060" y="2192"/>
            </Array>
          </mxGeometry>
        </mxCell>
        <mxCell id="Yor80Zz1ylZ34Q17yJMb-101" value="Hypoglycemia&lt;br&gt;202" style="rounded=1;whiteSpace=wrap;html=1;absoluteArcSize=1;arcSize=14;strokeWidth=2;" vertex="1" parent="1">
          <mxGeometry x="940" y="1820" width="100" height="100" as="geometry"/>
        </mxCell>
        <mxCell id="Yor80Zz1ylZ34Q17yJMb-107" style="edgeStyle=orthogonalEdgeStyle;rounded=0;orthogonalLoop=1;jettySize=auto;html=1;exitX=0.5;exitY=1;exitDx=0;exitDy=0;entryX=0.5;entryY=0;entryDx=0;entryDy=0;entryPerimeter=0;" edge="1" parent="1" source="Yor80Zz1ylZ34Q17yJMb-102" target="Yor80Zz1ylZ34Q17yJMb-92">
          <mxGeometry relative="1" as="geometry"/>
        </mxCell>
        <mxCell id="Yor80Zz1ylZ34Q17yJMb-102" value="Usual" style="rounded=1;whiteSpace=wrap;html=1;absoluteArcSize=1;arcSize=14;strokeWidth=2;" vertex="1" parent="1">
          <mxGeometry x="740" y="1980" width="100" height="100" as="geometry"/>
        </mxCell>
        <mxCell id="Yor80Zz1ylZ34Q17yJMb-131" value="" style="edgeStyle=orthogonalEdgeStyle;rounded=0;orthogonalLoop=1;jettySize=auto;html=1;" edge="1" parent="1" source="Yor80Zz1ylZ34Q17yJMb-108" target="Yor80Zz1ylZ34Q17yJMb-112">
          <mxGeometry relative="1" as="geometry"/>
        </mxCell>
        <mxCell id="Yor80Zz1ylZ34Q17yJMb-108" value="for example&lt;br&gt;glucose1 normal&lt;br&gt;glucose2 normal&lt;br&gt;glucose3 normal&lt;br&gt;glucose4 normal&lt;br&gt;glucose5 normal" style="rounded=1;whiteSpace=wrap;html=1;absoluteArcSize=1;arcSize=14;strokeWidth=2;" vertex="1" parent="1">
          <mxGeometry x="740" y="2280" width="100" height="100" as="geometry"/>
        </mxCell>
        <mxCell id="Yor80Zz1ylZ34Q17yJMb-117" style="edgeStyle=orthogonalEdgeStyle;rounded=0;orthogonalLoop=1;jettySize=auto;html=1;exitX=0.5;exitY=1;exitDx=0;exitDy=0;entryX=0.5;entryY=0;entryDx=0;entryDy=0;entryPerimeter=0;" edge="1" parent="1" source="Yor80Zz1ylZ34Q17yJMb-112" target="Yor80Zz1ylZ34Q17yJMb-113">
          <mxGeometry relative="1" as="geometry"/>
        </mxCell>
        <mxCell id="Yor80Zz1ylZ34Q17yJMb-112" value="diff = （glucose5-glucose1）/4&lt;br&gt;in mmol/L" style="rounded=1;whiteSpace=wrap;html=1;absoluteArcSize=1;arcSize=14;strokeWidth=2;" vertex="1" parent="1">
          <mxGeometry x="740" y="2450" width="100" height="100" as="geometry"/>
        </mxCell>
        <mxCell id="Yor80Zz1ylZ34Q17yJMb-118" style="edgeStyle=orthogonalEdgeStyle;rounded=0;orthogonalLoop=1;jettySize=auto;html=1;exitX=1;exitY=0.5;exitDx=0;exitDy=0;exitPerimeter=0;entryX=0;entryY=0.5;entryDx=0;entryDy=0;entryPerimeter=0;" edge="1" parent="1" source="Yor80Zz1ylZ34Q17yJMb-113" target="Yor80Zz1ylZ34Q17yJMb-114">
          <mxGeometry relative="1" as="geometry"/>
        </mxCell>
        <mxCell id="Yor80Zz1ylZ34Q17yJMb-127" style="edgeStyle=orthogonalEdgeStyle;rounded=0;orthogonalLoop=1;jettySize=auto;html=1;exitX=0.5;exitY=1;exitDx=0;exitDy=0;exitPerimeter=0;" edge="1" parent="1" source="Yor80Zz1ylZ34Q17yJMb-113" target="Yor80Zz1ylZ34Q17yJMb-121">
          <mxGeometry relative="1" as="geometry"/>
        </mxCell>
        <mxCell id="Yor80Zz1ylZ34Q17yJMb-113" value="&amp;gt;= 0.3" style="strokeWidth=2;html=1;shape=mxgraph.flowchart.decision;whiteSpace=wrap;" vertex="1" parent="1">
          <mxGeometry x="740" y="2600" width="100" height="100" as="geometry"/>
        </mxCell>
        <mxCell id="Yor80Zz1ylZ34Q17yJMb-119" style="edgeStyle=orthogonalEdgeStyle;rounded=0;orthogonalLoop=1;jettySize=auto;html=1;exitX=1;exitY=0.5;exitDx=0;exitDy=0;exitPerimeter=0;" edge="1" parent="1" source="Yor80Zz1ylZ34Q17yJMb-114" target="Yor80Zz1ylZ34Q17yJMb-115">
          <mxGeometry relative="1" as="geometry"/>
        </mxCell>
        <mxCell id="Yor80Zz1ylZ34Q17yJMb-128" value="" style="edgeStyle=orthogonalEdgeStyle;rounded=0;orthogonalLoop=1;jettySize=auto;html=1;" edge="1" parent="1" source="Yor80Zz1ylZ34Q17yJMb-114" target="Yor80Zz1ylZ34Q17yJMb-122">
          <mxGeometry relative="1" as="geometry"/>
        </mxCell>
        <mxCell id="Yor80Zz1ylZ34Q17yJMb-114" value="&amp;lt;= -0.3" style="strokeWidth=2;html=1;shape=mxgraph.flowchart.decision;whiteSpace=wrap;" vertex="1" parent="1">
          <mxGeometry x="900" y="2600" width="100" height="100" as="geometry"/>
        </mxCell>
        <mxCell id="Yor80Zz1ylZ34Q17yJMb-120" style="edgeStyle=orthogonalEdgeStyle;rounded=0;orthogonalLoop=1;jettySize=auto;html=1;exitX=1;exitY=0.5;exitDx=0;exitDy=0;exitPerimeter=0;entryX=0;entryY=0.5;entryDx=0;entryDy=0;entryPerimeter=0;" edge="1" parent="1" source="Yor80Zz1ylZ34Q17yJMb-115" target="Yor80Zz1ylZ34Q17yJMb-116">
          <mxGeometry relative="1" as="geometry"/>
        </mxCell>
        <mxCell id="Yor80Zz1ylZ34Q17yJMb-129" value="" style="edgeStyle=orthogonalEdgeStyle;rounded=0;orthogonalLoop=1;jettySize=auto;html=1;" edge="1" parent="1" source="Yor80Zz1ylZ34Q17yJMb-115" target="Yor80Zz1ylZ34Q17yJMb-123">
          <mxGeometry relative="1" as="geometry"/>
        </mxCell>
        <mxCell id="Yor80Zz1ylZ34Q17yJMb-115" value="&amp;gt;= 0.15" style="strokeWidth=2;html=1;shape=mxgraph.flowchart.decision;whiteSpace=wrap;" vertex="1" parent="1">
          <mxGeometry x="1070" y="2600" width="100" height="100" as="geometry"/>
        </mxCell>
        <mxCell id="Yor80Zz1ylZ34Q17yJMb-126" style="edgeStyle=orthogonalEdgeStyle;rounded=0;orthogonalLoop=1;jettySize=auto;html=1;exitX=1;exitY=0.5;exitDx=0;exitDy=0;exitPerimeter=0;entryX=0.5;entryY=0;entryDx=0;entryDy=0;" edge="1" parent="1" source="Yor80Zz1ylZ34Q17yJMb-116" target="Yor80Zz1ylZ34Q17yJMb-125">
          <mxGeometry relative="1" as="geometry"/>
        </mxCell>
        <mxCell id="Yor80Zz1ylZ34Q17yJMb-130" value="" style="edgeStyle=orthogonalEdgeStyle;rounded=0;orthogonalLoop=1;jettySize=auto;html=1;" edge="1" parent="1" source="Yor80Zz1ylZ34Q17yJMb-116" target="Yor80Zz1ylZ34Q17yJMb-124">
          <mxGeometry relative="1" as="geometry"/>
        </mxCell>
        <mxCell id="Yor80Zz1ylZ34Q17yJMb-116" value="&amp;lt;= -0.15" style="strokeWidth=2;html=1;shape=mxgraph.flowchart.decision;whiteSpace=wrap;" vertex="1" parent="1">
          <mxGeometry x="1240" y="2600" width="100" height="100" as="geometry"/>
        </mxCell>
        <mxCell id="Yor80Zz1ylZ34Q17yJMb-141" style="edgeStyle=orthogonalEdgeStyle;rounded=0;orthogonalLoop=1;jettySize=auto;html=1;exitX=0.5;exitY=1;exitDx=0;exitDy=0;entryX=0.5;entryY=0;entryDx=0;entryDy=0;entryPerimeter=0;" edge="1" parent="1" source="Yor80Zz1ylZ34Q17yJMb-121" target="Yor80Zz1ylZ34Q17yJMb-132">
          <mxGeometry relative="1" as="geometry"/>
        </mxCell>
        <mxCell id="Yor80Zz1ylZ34Q17yJMb-121" value="rise_rapidly" style="rounded=1;whiteSpace=wrap;html=1;absoluteArcSize=1;arcSize=14;strokeWidth=2;" vertex="1" parent="1">
          <mxGeometry x="740" y="2750" width="100" height="100" as="geometry"/>
        </mxCell>
        <mxCell id="Yor80Zz1ylZ34Q17yJMb-142" style="edgeStyle=orthogonalEdgeStyle;rounded=0;orthogonalLoop=1;jettySize=auto;html=1;exitX=0.5;exitY=1;exitDx=0;exitDy=0;" edge="1" parent="1" source="Yor80Zz1ylZ34Q17yJMb-122">
          <mxGeometry relative="1" as="geometry">
            <mxPoint x="790" y="2949.9999999999995" as="targetPoint"/>
          </mxGeometry>
        </mxCell>
        <mxCell id="Yor80Zz1ylZ34Q17yJMb-122" value="drop_rapidly" style="rounded=1;whiteSpace=wrap;html=1;absoluteArcSize=1;arcSize=14;strokeWidth=2;" vertex="1" parent="1">
          <mxGeometry x="900" y="2750" width="100" height="100" as="geometry"/>
        </mxCell>
        <mxCell id="Yor80Zz1ylZ34Q17yJMb-143" style="edgeStyle=orthogonalEdgeStyle;rounded=0;orthogonalLoop=1;jettySize=auto;html=1;exitX=0.5;exitY=1;exitDx=0;exitDy=0;" edge="1" parent="1" source="Yor80Zz1ylZ34Q17yJMb-123">
          <mxGeometry relative="1" as="geometry">
            <mxPoint x="790" y="2949.9999999999995" as="targetPoint"/>
          </mxGeometry>
        </mxCell>
        <mxCell id="Yor80Zz1ylZ34Q17yJMb-123" value="rise_steadily" style="rounded=1;whiteSpace=wrap;html=1;absoluteArcSize=1;arcSize=14;strokeWidth=2;" vertex="1" parent="1">
          <mxGeometry x="1070" y="2750" width="100" height="100" as="geometry"/>
        </mxCell>
        <mxCell id="Yor80Zz1ylZ34Q17yJMb-144" style="edgeStyle=orthogonalEdgeStyle;rounded=0;orthogonalLoop=1;jettySize=auto;html=1;exitX=0.5;exitY=1;exitDx=0;exitDy=0;" edge="1" parent="1" source="Yor80Zz1ylZ34Q17yJMb-124">
          <mxGeometry relative="1" as="geometry">
            <mxPoint x="790" y="2949.9999999999995" as="targetPoint"/>
          </mxGeometry>
        </mxCell>
        <mxCell id="Yor80Zz1ylZ34Q17yJMb-124" value="drop_steadily" style="rounded=1;whiteSpace=wrap;html=1;absoluteArcSize=1;arcSize=14;strokeWidth=2;" vertex="1" parent="1">
          <mxGeometry x="1240" y="2750" width="100" height="100" as="geometry"/>
        </mxCell>
        <mxCell id="Yor80Zz1ylZ34Q17yJMb-145" style="edgeStyle=orthogonalEdgeStyle;rounded=0;orthogonalLoop=1;jettySize=auto;html=1;exitX=0.5;exitY=1;exitDx=0;exitDy=0;" edge="1" parent="1" source="Yor80Zz1ylZ34Q17yJMb-125">
          <mxGeometry relative="1" as="geometry">
            <mxPoint x="790" y="2949.9999999999995" as="targetPoint"/>
          </mxGeometry>
        </mxCell>
        <mxCell id="Yor80Zz1ylZ34Q17yJMb-125" value="steady" style="rounded=1;whiteSpace=wrap;html=1;absoluteArcSize=1;arcSize=14;strokeWidth=2;" vertex="1" parent="1">
          <mxGeometry x="1410" y="2750" width="100" height="100" as="geometry"/>
        </mxCell>
        <mxCell id="Yor80Zz1ylZ34Q17yJMb-146" value="Yes" style="edgeStyle=orthogonalEdgeStyle;rounded=0;orthogonalLoop=1;jettySize=auto;html=1;exitX=0.5;exitY=1;exitDx=0;exitDy=0;exitPerimeter=0;entryX=0.5;entryY=0;entryDx=0;entryDy=0;" edge="1" parent="1" source="Yor80Zz1ylZ34Q17yJMb-132" target="Yor80Zz1ylZ34Q17yJMb-134">
          <mxGeometry relative="1" as="geometry"/>
        </mxCell>
        <mxCell id="Yor80Zz1ylZ34Q17yJMb-132" value="data count &amp;gt;= 2440" style="strokeWidth=2;html=1;shape=mxgraph.flowchart.decision;whiteSpace=wrap;" vertex="1" parent="1">
          <mxGeometry x="740" y="2950" width="100" height="100" as="geometry"/>
        </mxCell>
        <mxCell id="Yor80Zz1ylZ34Q17yJMb-133" value="&lt;font color=&quot;#ff6666&quot;&gt;at this time, normal glucose data counts must more than 1440, otherwise it&#39;s meaningless&lt;/font&gt;" style="text;html=1;align=center;verticalAlign=middle;resizable=0;points=[];;autosize=1;" vertex="1" parent="1">
          <mxGeometry x="850" y="2990" width="490" height="20" as="geometry"/>
        </mxCell>
        <mxCell id="Yor80Zz1ylZ34Q17yJMb-147" value="" style="edgeStyle=orthogonalEdgeStyle;rounded=0;orthogonalLoop=1;jettySize=auto;html=1;" edge="1" parent="1" source="Yor80Zz1ylZ34Q17yJMb-134" target="Yor80Zz1ylZ34Q17yJMb-135">
          <mxGeometry relative="1" as="geometry"/>
        </mxCell>
        <mxCell id="Yor80Zz1ylZ34Q17yJMb-134" value="AVG1440 = IW AVG of the latest 1440 datas" style="rounded=1;whiteSpace=wrap;html=1;absoluteArcSize=1;arcSize=14;strokeWidth=2;" vertex="1" parent="1">
          <mxGeometry x="740" y="3110" width="100" height="100" as="geometry"/>
        </mxCell>
        <mxCell id="Yor80Zz1ylZ34Q17yJMb-148" value="" style="edgeStyle=orthogonalEdgeStyle;rounded=0;orthogonalLoop=1;jettySize=auto;html=1;" edge="1" parent="1" source="Yor80Zz1ylZ34Q17yJMb-135" target="Yor80Zz1ylZ34Q17yJMb-136">
          <mxGeometry relative="1" as="geometry"/>
        </mxCell>
        <mxCell id="Yor80Zz1ylZ34Q17yJMb-135" value="AVG480 = IW AVG of the latest&lt;br&gt;480 datas" style="rounded=1;whiteSpace=wrap;html=1;absoluteArcSize=1;arcSize=14;strokeWidth=2;" vertex="1" parent="1">
          <mxGeometry x="740" y="3270" width="100" height="100" as="geometry"/>
        </mxCell>
        <mxCell id="Yor80Zz1ylZ34Q17yJMb-149" value="" style="edgeStyle=orthogonalEdgeStyle;rounded=0;orthogonalLoop=1;jettySize=auto;html=1;" edge="1" parent="1" source="Yor80Zz1ylZ34Q17yJMb-136" target="Yor80Zz1ylZ34Q17yJMb-137">
          <mxGeometry relative="1" as="geometry"/>
        </mxCell>
        <mxCell id="Yor80Zz1ylZ34Q17yJMb-136" value="AVG480/AVG1440&lt;br&gt;&amp;lt; 0.5" style="strokeWidth=2;html=1;shape=mxgraph.flowchart.decision;whiteSpace=wrap;" vertex="1" parent="1">
          <mxGeometry x="740" y="3440" width="100" height="100" as="geometry"/>
        </mxCell>
        <mxCell id="Yor80Zz1ylZ34Q17yJMb-137" value="Low Sensitivity&lt;br&gt;302" style="rounded=1;whiteSpace=wrap;html=1;absoluteArcSize=1;arcSize=14;strokeWidth=2;" vertex="1" parent="1">
          <mxGeometry x="740" y="3610" width="100" height="100" as="geometry"/>
        </mxCell>
        <mxCell id="Yor80Zz1ylZ34Q17yJMb-138" value="" style="rounded=1;whiteSpace=wrap;html=1;absoluteArcSize=1;arcSize=14;strokeWidth=2;gradientColor=none;opacity=10;perimeterSpacing=1;" vertex="1" parent="1">
          <mxGeometry x="580" y="2720" width="450" height="150" as="geometry"/>
        </mxCell>
        <mxCell id="Yor80Zz1ylZ34Q17yJMb-139" value="&lt;font color=&quot;#ff6666&quot;&gt;Unstable&amp;nbsp; 303&lt;/font&gt;" style="text;html=1;align=center;verticalAlign=middle;resizable=0;points=[];;autosize=1;" vertex="1" parent="1">
          <mxGeometry x="630" y="2795" width="90" height="20" as="geometry"/>
        </mxCell>
        <mxCell id="Yor80Zz1ylZ34Q17yJMb-154" style="edgeStyle=orthogonalEdgeStyle;rounded=0;orthogonalLoop=1;jettySize=auto;html=1;entryX=0;entryY=0.5;entryDx=0;entryDy=0;entryPerimeter=0;exitX=0.5;exitY=1;exitDx=0;exitDy=0;" edge="1" parent="1" source="Yor80Zz1ylZ34Q17yJMb-152" target="Yor80Zz1ylZ34Q17yJMb-132">
          <mxGeometry relative="1" as="geometry"/>
        </mxCell>
        <mxCell id="Yor80Zz1ylZ34Q17yJMb-152" value="Trend None" style="rounded=1;whiteSpace=wrap;html=1;absoluteArcSize=1;arcSize=14;strokeWidth=2;fillColor=#FFFFFF;gradientColor=none;" vertex="1" parent="1">
          <mxGeometry x="220" y="2755" width="100" height="100" as="geometry"/>
        </mxCell>
        <mxCell id="Yor80Zz1ylZ34Q17yJMb-166" value="&lt;font color=&quot;#ff3333&quot;&gt;Flat file step 50&lt;/font&gt;" style="text;html=1;align=center;verticalAlign=middle;resizable=0;points=[];;autosize=1;fillColor=#FFFFFF;" vertex="1" parent="1">
          <mxGeometry x="940" y="1800" width="100" height="20" as="geometry"/>
        </mxCell>
        <mxCell id="Yor80Zz1ylZ34Q17yJMb-167" value="&lt;font color=&quot;#ff3333&quot;&gt;Flat file step 51&lt;/font&gt;" style="text;html=1;align=center;verticalAlign=middle;resizable=0;points=[];;autosize=1;" vertex="1" parent="1">
          <mxGeometry x="160" y="1590" width="100" height="20" as="geometry"/>
        </mxCell>
        <mxCell id="Yor80Zz1ylZ34Q17yJMb-169" value="&lt;font color=&quot;#ff3333&quot;&gt;Flat file step 52&lt;/font&gt;" style="text;html=1;align=center;verticalAlign=middle;resizable=0;points=[];;autosize=1;" vertex="1" parent="1">
          <mxGeometry x="320" y="1810" width="100" height="20" as="geometry"/>
        </mxCell>
        <mxCell id="Yor80Zz1ylZ34Q17yJMb-170" value="&lt;font color=&quot;#ff3333&quot;&gt;Flat file step 43&lt;/font&gt;" style="text;html=1;align=center;verticalAlign=middle;resizable=0;points=[];;autosize=1;" vertex="1" parent="1">
          <mxGeometry x="940" y="1650" width="100" height="20" as="geometry"/>
        </mxCell>
        <mxCell id="Yor80Zz1ylZ34Q17yJMb-171" value="&lt;font color=&quot;#ff3333&quot;&gt;Flat file stdp 70&lt;/font&gt;" style="text;html=1;align=center;verticalAlign=middle;resizable=0;points=[];;autosize=1;" vertex="1" parent="1">
          <mxGeometry x="840" y="3610" width="100" height="20" as="geometry"/>
        </mxCell>
        <mxCell id="Yor80Zz1ylZ34Q17yJMb-187" value="" style="edgeStyle=orthogonalEdgeStyle;rounded=0;orthogonalLoop=1;jettySize=auto;html=1;" edge="1" parent="1" source="Yor80Zz1ylZ34Q17yJMb-173" target="Yor80Zz1ylZ34Q17yJMb-174">
          <mxGeometry relative="1" as="geometry"/>
        </mxCell>
        <mxCell id="Yor80Zz1ylZ34Q17yJMb-173" value="Device Bind in APP database but disconnect" style="strokeWidth=2;html=1;shape=mxgraph.flowchart.terminator;whiteSpace=wrap;fillColor=#FFFFFF;gradientColor=none;" vertex="1" parent="1">
          <mxGeometry x="790" y="30" width="100" height="60" as="geometry"/>
        </mxCell>
        <mxCell id="Yor80Zz1ylZ34Q17yJMb-186" value="" style="edgeStyle=orthogonalEdgeStyle;rounded=0;orthogonalLoop=1;jettySize=auto;html=1;" edge="1" parent="1" source="Yor80Zz1ylZ34Q17yJMb-174" target="Yor80Zz1ylZ34Q17yJMb-176">
          <mxGeometry relative="1" as="geometry"/>
        </mxCell>
        <mxCell id="Yor80Zz1ylZ34Q17yJMb-174" value="scan device bytes via bluetooth" style="rounded=1;whiteSpace=wrap;html=1;absoluteArcSize=1;arcSize=14;strokeWidth=2;fillColor=#FFFFFF;gradientColor=none;" vertex="1" parent="1">
          <mxGeometry x="790" y="150" width="100" height="100" as="geometry"/>
        </mxCell>
        <mxCell id="Yor80Zz1ylZ34Q17yJMb-185" value="" style="edgeStyle=orthogonalEdgeStyle;rounded=0;orthogonalLoop=1;jettySize=auto;html=1;" edge="1" parent="1" source="Yor80Zz1ylZ34Q17yJMb-176" target="Yor80Zz1ylZ34Q17yJMb-177">
          <mxGeometry relative="1" as="geometry"/>
        </mxCell>
        <mxCell id="Yor80Zz1ylZ34Q17yJMb-176" value="analysis via SDK&lt;br&gt;ProtocolTools.Verify" style="rounded=1;whiteSpace=wrap;html=1;absoluteArcSize=1;arcSize=14;strokeWidth=2;fillColor=#FFFFFF;gradientColor=none;" vertex="1" parent="1">
          <mxGeometry x="790" y="330" width="100" height="100" as="geometry"/>
        </mxCell>
        <mxCell id="Yor80Zz1ylZ34Q17yJMb-184" value="" style="edgeStyle=orthogonalEdgeStyle;rounded=0;orthogonalLoop=1;jettySize=auto;html=1;" edge="1" parent="1" source="Yor80Zz1ylZ34Q17yJMb-177" target="Yor80Zz1ylZ34Q17yJMb-178">
          <mxGeometry relative="1" as="geometry"/>
        </mxCell>
        <mxCell id="Yor80Zz1ylZ34Q17yJMb-188" style="edgeStyle=orthogonalEdgeStyle;rounded=0;orthogonalLoop=1;jettySize=auto;html=1;exitX=1;exitY=0.5;exitDx=0;exitDy=0;exitPerimeter=0;entryX=1.01;entryY=0.38;entryDx=0;entryDy=0;entryPerimeter=0;" edge="1" parent="1" source="Yor80Zz1ylZ34Q17yJMb-177" target="Yor80Zz1ylZ34Q17yJMb-174">
          <mxGeometry relative="1" as="geometry">
            <Array as="points">
              <mxPoint x="950" y="560"/>
              <mxPoint x="950" y="188"/>
            </Array>
          </mxGeometry>
        </mxCell>
        <mxCell id="Yor80Zz1ylZ34Q17yJMb-177" value="scan device address ==&amp;nbsp;&lt;br&gt;database bind device address" style="strokeWidth=2;html=1;shape=mxgraph.flowchart.decision;whiteSpace=wrap;fillColor=#FFFFFF;gradientColor=none;" vertex="1" parent="1">
          <mxGeometry x="790" y="510" width="100" height="100" as="geometry"/>
        </mxCell>
        <mxCell id="Yor80Zz1ylZ34Q17yJMb-181" value="No" style="edgeStyle=orthogonalEdgeStyle;rounded=0;orthogonalLoop=1;jettySize=auto;html=1;" edge="1" parent="1" source="Yor80Zz1ylZ34Q17yJMb-178" target="Yor80Zz1ylZ34Q17yJMb-180">
          <mxGeometry relative="1" as="geometry"/>
        </mxCell>
        <mxCell id="Yor80Zz1ylZ34Q17yJMb-183" value="Yes" style="edgeStyle=orthogonalEdgeStyle;rounded=0;orthogonalLoop=1;jettySize=auto;html=1;" edge="1" parent="1" source="Yor80Zz1ylZ34Q17yJMb-178" target="Yor80Zz1ylZ34Q17yJMb-182">
          <mxGeometry relative="1" as="geometry"/>
        </mxCell>
        <mxCell id="Yor80Zz1ylZ34Q17yJMb-178" value="verify.isBound()" style="strokeWidth=2;html=1;shape=mxgraph.flowchart.decision;whiteSpace=wrap;fillColor=#FFFFFF;gradientColor=none;" vertex="1" parent="1">
          <mxGeometry x="790" y="670" width="100" height="100" as="geometry"/>
        </mxCell>
        <mxCell id="Yor80Zz1ylZ34Q17yJMb-182" value="verify.isBound()" style="strokeWidth=2;html=1;shape=mxgraph.flowchart.decision;whiteSpace=wrap;fillColor=#FFFFFF;gradientColor=none;" vertex="1" parent="1">
          <mxGeometry x="970" y="670" width="100" height="100" as="geometry"/>
        </mxCell>
        <mxCell id="Yor80Zz1ylZ34Q17yJMb-179" value="reconnect" style="rounded=1;whiteSpace=wrap;html=1;absoluteArcSize=1;arcSize=14;strokeWidth=2;fillColor=#FFFFFF;gradientColor=none;" vertex="1" parent="1">
          <mxGeometry x="974" y="670" width="100" height="100" as="geometry"/>
        </mxCell>
        <mxCell id="Yor80Zz1ylZ34Q17yJMb-180" value="device restart&lt;br&gt;(unbind in app)&lt;br&gt;203" style="rounded=1;whiteSpace=wrap;html=1;absoluteArcSize=1;arcSize=14;strokeWidth=2;fillColor=#FFFFFF;gradientColor=none;" vertex="1" parent="1">
          <mxGeometry x="790" y="850" width="100" height="100" as="geometry"/>
        </mxCell>
        <mxCell id="Yor80Zz1ylZ34Q17yJMb-189" value="&lt;font color=&quot;#ff3333&quot;&gt;Flat file step 34&lt;/font&gt;" style="text;html=1;align=center;verticalAlign=middle;resizable=0;points=[];;autosize=1;" vertex="1" parent="1">
          <mxGeometry x="890" y="850" width="100" height="20" as="geometry"/>
        </mxCell>
        <mxCell id="Yor80Zz1ylZ34Q17yJMb-192" value="" style="edgeStyle=orthogonalEdgeStyle;rounded=0;orthogonalLoop=1;jettySize=auto;html=1;" edge="1" source="Yor80Zz1ylZ34Q17yJMb-193" target="Yor80Zz1ylZ34Q17yJMb-196" parent="1">
          <mxGeometry relative="1" as="geometry"/>
        </mxCell>
        <mxCell id="Yor80Zz1ylZ34Q17yJMb-193" value="new BG&lt;br&gt;mmol/L" style="strokeWidth=2;html=1;shape=mxgraph.flowchart.start_1;whiteSpace=wrap;fillColor=#FFFFFF;gradientColor=none;" vertex="1" parent="1">
          <mxGeometry x="-240" y="2640" width="100" height="60" as="geometry"/>
        </mxCell>
        <mxCell id="Yor80Zz1ylZ34Q17yJMb-194" value="Yes" style="edgeStyle=orthogonalEdgeStyle;rounded=0;orthogonalLoop=1;jettySize=auto;html=1;" edge="1" source="Yor80Zz1ylZ34Q17yJMb-196" target="Yor80Zz1ylZ34Q17yJMb-199" parent="1">
          <mxGeometry relative="1" as="geometry"/>
        </mxCell>
        <mxCell id="Yor80Zz1ylZ34Q17yJMb-195" value="No" style="edgeStyle=orthogonalEdgeStyle;rounded=0;orthogonalLoop=1;jettySize=auto;html=1;exitX=1;exitY=0.5;exitDx=0;exitDy=0;exitPerimeter=0;entryX=0;entryY=0.5;entryDx=0;entryDy=0;" edge="1" source="Yor80Zz1ylZ34Q17yJMb-196" target="Yor80Zz1ylZ34Q17yJMb-201" parent="1">
          <mxGeometry relative="1" as="geometry"/>
        </mxCell>
        <mxCell id="Yor80Zz1ylZ34Q17yJMb-196" value="BG &amp;lt;= 15 and BG&amp;nbsp; &amp;gt;= 4" style="strokeWidth=2;html=1;shape=mxgraph.flowchart.decision;whiteSpace=wrap;fillColor=#FFFFFF;gradientColor=none;" vertex="1" parent="1">
          <mxGeometry x="-240" y="2755" width="100" height="100" as="geometry"/>
        </mxCell>
        <mxCell id="Yor80Zz1ylZ34Q17yJMb-197" value="Yes" style="edgeStyle=orthogonalEdgeStyle;rounded=0;orthogonalLoop=1;jettySize=auto;html=1;" edge="1" source="Yor80Zz1ylZ34Q17yJMb-199" target="Yor80Zz1ylZ34Q17yJMb-200" parent="1">
          <mxGeometry relative="1" as="geometry"/>
        </mxCell>
        <mxCell id="Yor80Zz1ylZ34Q17yJMb-198" value="No" style="edgeStyle=orthogonalEdgeStyle;rounded=0;orthogonalLoop=1;jettySize=auto;html=1;exitX=1;exitY=0.5;exitDx=0;exitDy=0;exitPerimeter=0;entryX=0.5;entryY=1;entryDx=0;entryDy=0;" edge="1" source="Yor80Zz1ylZ34Q17yJMb-199" target="Yor80Zz1ylZ34Q17yJMb-201" parent="1">
          <mxGeometry relative="1" as="geometry"/>
        </mxCell>
        <mxCell id="Yor80Zz1ylZ34Q17yJMb-199" value="trend = rise_repidly or&lt;br&gt;drop_repidly or&lt;br&gt;None" style="strokeWidth=2;html=1;shape=mxgraph.flowchart.decision;whiteSpace=wrap;fillColor=#FFFFFF;gradientColor=none;" vertex="1" parent="1">
          <mxGeometry x="-240" y="2920" width="100" height="100" as="geometry"/>
        </mxCell>
        <mxCell id="Yor80Zz1ylZ34Q17yJMb-200" value="Non-input&lt;br&gt;303" style="rounded=1;whiteSpace=wrap;html=1;absoluteArcSize=1;arcSize=14;strokeWidth=2;fillColor=#FFFFFF;gradientColor=none;" vertex="1" parent="1">
          <mxGeometry x="-240" y="3084" width="100" height="100" as="geometry"/>
        </mxCell>
        <mxCell id="Yor80Zz1ylZ34Q17yJMb-207" style="edgeStyle=orthogonalEdgeStyle;rounded=0;orthogonalLoop=1;jettySize=auto;html=1;exitX=1;exitY=0.5;exitDx=0;exitDy=0;entryX=0;entryY=0.5;entryDx=0;entryDy=0;" edge="1" parent="1" source="Yor80Zz1ylZ34Q17yJMb-201" target="Yor80Zz1ylZ34Q17yJMb-152">
          <mxGeometry relative="1" as="geometry"/>
        </mxCell>
        <mxCell id="Yor80Zz1ylZ34Q17yJMb-201" value="input" style="rounded=1;whiteSpace=wrap;html=1;absoluteArcSize=1;arcSize=14;strokeWidth=2;fillColor=#FFFFFF;gradientColor=none;" vertex="1" parent="1">
          <mxGeometry x="-40" y="2755" width="100" height="100" as="geometry"/>
        </mxCell>
        <mxCell id="Yor80Zz1ylZ34Q17yJMb-202" value="&lt;font color=&quot;#ff3333&quot;&gt;Flat file step 46&lt;/font&gt;" style="text;html=1;align=center;verticalAlign=middle;resizable=0;points=[];;autosize=1;" vertex="1" parent="1">
          <mxGeometry x="-140" y="3084" width="100" height="20" as="geometry"/>
        </mxCell>
      </root>
    </mxGraphModel>
  </diagram>
</mxfile>
